<svg width="40" height="40" viewBox="0 0 40 40" fill="none" xmlns="http://www.w3.org/2000/svg">
<mask id="mask0_15_166" style="mask-type:alpha" maskUnits="userSpaceOnUse" x="0" y="0" width="40" height="40">
<rect width="40" height="40" fill="#D9D9D9"/>
</mask>
<g mask="url(#mask0_15_166)">
<path d="M20 26.2778L21.9445 24.3333L19 21.3889H26.3889V18.6111H19L21.9445 15.6667L20 13.7223L13.7223 20L20 26.2778ZM20 36.6667C17.713 36.6667 15.5556 36.2292 13.5278 35.3542C11.5001 34.4792 9.73153 33.287 8.22225 31.7778C6.713 30.2685 5.52087 28.5 4.64587 26.4722C3.77087 24.4444 3.33337 22.287 3.33337 20C3.33337 17.6944 3.77087 15.5278 4.64587 13.5C5.52087 11.4722 6.713 9.70833 8.22225 8.20833C9.73153 6.70833 11.5001 5.52083 13.5278 4.64583C15.5556 3.77083 17.713 3.33333 20 3.33333C22.3056 3.33333 24.4723 3.77083 26.5 4.64583C28.5278 5.52083 30.2917 6.70833 31.7917 8.20833C33.2917 9.70833 34.4792 11.4722 35.3542 13.5C36.2292 15.5278 36.6667 17.6944 36.6667 20C36.6667 22.287 36.2292 24.4444 35.3542 26.4722C34.4792 28.5 33.2917 30.2685 31.7917 31.7778C30.2917 33.287 28.5278 34.4792 26.5 35.3542C24.4723 36.2292 22.3056 36.6667 20 36.6667Z" fill="#AEAEAE"/>
</g>
</svg>
