<svg width="18" height="19" viewBox="0 0 18 19" fill="none" xmlns="http://www.w3.org/2000/svg">
<mask id="mask0_1_943" style="mask-type:alpha" maskUnits="userSpaceOnUse" x="0" y="0" width="18" height="19">
<rect y="0.5" width="18" height="18" fill="#D9D9D9"/>
</mask>
<g mask="url(#mask0_1_943)">
<path fill-rule="evenodd" clip-rule="evenodd" d="M1.50033 3.57512V16.9995L4.50003 13.9998H14.9247C15.3621 13.9998 15.7341 13.8468 16.0407 13.5408C16.3467 13.2342 16.4997 12.8622 16.4997 12.4248V3.57512C16.4997 3.13772 16.3467 2.76572 16.0407 2.45912C15.7341 2.15312 15.3621 2.00012 14.9247 2.00012H3.07533C2.63793 2.00012 2.26593 2.15312 1.95933 2.45912C1.65333 2.76572 1.50033 3.13772 1.50033 3.57512ZM3.84393 12.4248L3.07533 13.1934V3.57512H14.9247V12.4248H3.84393Z" fill="#434343"/>
</g>
</svg>
