<svg width="20" height="18" viewBox="0 0 19 18" fill="#666666" xmlns="http://www.w3.org/2000/svg">
    <path
        d="M2.3335 18C1.7835 18 1.3125 17.8043 0.920496 17.413C0.529163 17.021 0.333496 16.55 0.333496 16V2C0.333496 1.45 0.529163 0.979 0.920496 0.587C1.3125 0.195667 1.7835 0 2.3335 0H13.3335L18.3335 5V16C18.3335 16.55 18.1378 17.021 17.7465 17.413C17.3545 17.8043 16.8835 18 16.3335 18H2.3335ZM2.3335 16H16.3335V6H12.3335V2H2.3335V16ZM4.3335 14H14.3335V12H4.3335V14ZM4.3335 6H9.3335V4H4.3335V6ZM4.3335 10H14.3335V8H4.3335V10Z"
    />
</svg>