<svg width="108" height="32" viewBox="0 0 108 32" fill="none" xmlns="http://www.w3.org/2000/svg">
<path d="M18.03 8.33002H13.87C10.81 8.33002 8.32 10.82 8.32 13.88V18.04C8.32 21.1 10.81 23.59 13.87 23.59H18.03C18.51 23.59 18.97 23.53 19.42 23.41V23.59C19.42 25.88 17.55 27.75 15.26 27.75H13.87C8.51 27.75 4.16 23.39 4.16 18.04V13.87C4.16 11.81 4.8 9.90002 5.91 8.33002H5.54C2.49 8.33002 0 10.82 0 13.88V18.04C0 25.69 6.23 31.92 13.88 31.92H15.27C19.86 31.92 23.6 28.19 23.6 23.59V13.88C23.6 10.82 21.11 8.33002 18.05 8.33002H18.03ZM19.42 18.04C19.42 18.8 18.8 19.43 18.03 19.43H13.87C13.11 19.43 12.48 18.81 12.48 18.04V13.88C12.48 13.12 13.1 12.49 13.87 12.49H18.03C18.79 12.49 19.42 13.11 19.42 13.88V18.04Z" fill="#5E60FF"/>
<path d="M31.91 13.88V18.04C31.91 21.1 29.42 23.59 26.36 23.59H26.01C27.11 22.02 27.75 20.11 27.75 18.05V13.88C27.75 8.52001 23.39 4.17001 18.04 4.17001H13.87C11.81 4.17001 9.89996 4.81001 8.32996 5.91001V5.56001C8.32996 2.50001 10.82 0.0100098 13.88 0.0100098H18.04C25.69 0.0100098 31.92 6.24001 31.92 13.89L31.91 13.88Z" fill="#5E60FF"/>
<path d="M77.8301 23.94C80.0301 23.94 81.8201 22.15 81.8201 19.95V0C79.6201 0 77.8301 1.79 77.8301 3.99V23.94Z" fill="#5E60FF"/>
<path d="M107.75 11.97C105.55 11.97 103.76 13.76 103.76 15.96V23.94C103.76 26.14 101.97 27.93 99.77 27.93C99.77 30.36 102.54 31.81 104.49 30.37C106.46 28.92 107.74 26.58 107.74 23.94V11.97H107.75Z" fill="#5E60FF"/>
<path d="M72.03 27.45C70.44 27.15 69.08 28.51 69.38 30.1C69.55 30.99 70.26 31.7 71.15 31.87C72.74 32.17 74.1 30.81 73.8 29.22C73.63 28.33 72.92 27.62 72.03 27.45Z" fill="#5E60FF"/>
<path d="M92.22 11.98C88.58 11.73 85.57 14.74 85.82 18.38C86.04 21.54 88.77 23.94 91.93 23.94H93.78C93.78 26.14 91.99 27.93 89.79 27.93H85.8C85.8 30.13 87.59 31.92 89.79 31.92C94.2 31.92 97.77 28.35 97.77 23.94V18.1C97.77 14.94 95.37 12.21 92.21 11.99L92.22 11.98ZM93.79 19.94H91.88C90.75 19.94 89.77 19.03 89.8 17.9C89.82 16.84 90.68 15.98 91.75 15.95C92.88 15.92 93.79 16.9 93.79 18.03V19.94Z" fill="#5E60FF"/>
<path d="M73.84 11.97C71.64 11.97 69.85 13.76 69.85 15.96V17.96C69.85 19.06 68.96 19.96 67.86 19.96H65.86C64.76 19.96 63.86 19.07 63.86 17.96V17.12C63.86 13.81 61.23 11 57.92 10.98C57.22 10.98 56.53 11.09 55.88 11.32L47.9 14.14V0C45.7 0 43.91 1.79 43.91 3.99V19.95H39.92C39.92 22.15 41.71 23.94 43.91 23.94H57.88C59.37 23.94 60.77 23.39 61.87 22.41C62.93 23.36 64.32 23.94 65.86 23.94H67.86C71.16 23.94 73.84 21.26 73.84 17.96V11.97ZM59.88 17.96C59.88 18.49 59.67 18.99 59.3 19.37C58.92 19.75 58.42 19.96 57.89 19.96H47.92V18.38L57.23 15.09C57.44 15.02 57.66 14.98 57.89 14.98C58.99 14.98 59.88 15.96 59.88 17.06V17.97V17.96Z" fill="#5E60FF"/>
</svg>
