<svg width="20" height="21" viewBox="0 0 20 21" fill="none" xmlns="http://www.w3.org/2000/svg">
<mask id="mask0_1_910" style="mask-type:alpha" maskUnits="userSpaceOnUse" x="0" y="0" width="20" height="21">
<rect y="0.5" width="20" height="20" fill="#D9D9D9"/>
</mask>
<g mask="url(#mask0_1_910)">
<path d="M6 14.604H14.021C14.215 14.604 14.354 14.5207 14.438 14.354C14.5207 14.1873 14.5067 14.0277 14.396 13.875L12.229 10.979C12.1317 10.8543 12.0067 10.7953 11.854 10.802C11.7013 10.8087 11.5763 10.8747 11.479 11L9.396 13.792L7.917 11.812C7.81967 11.6873 7.69467 11.625 7.542 11.625C7.38867 11.625 7.26367 11.6873 7.167 11.812L5.625 13.875C5.51367 14.0277 5.50333 14.1873 5.594 14.354C5.684 14.5207 5.81933 14.604 6 14.604ZM4.25 18C3.764 18 3.35067 17.83 3.01 17.49C2.67 17.1493 2.5 16.736 2.5 16.25V4.75C2.5 4.264 2.67 3.85067 3.01 3.51C3.35067 3.17 3.764 3 4.25 3H15.75C16.236 3 16.6493 3.17 16.99 3.51C17.33 3.85067 17.5 4.264 17.5 4.75V16.25C17.5 16.736 17.33 17.1493 16.99 17.49C16.6493 17.83 16.236 18 15.75 18H4.25ZM4.25 16.25H15.75V4.75H4.25V16.25Z" fill="#1C1B1F"/>
</g>
</svg>
