<svg width="20" height="21" viewBox="0 0 20 21" fill="none" xmlns="http://www.w3.org/2000/svg">
<mask id="mask0_1_907" style="mask-type:alpha" maskUnits="userSpaceOnUse" x="0" y="0" width="20" height="21">
<rect y="0.5" width="20" height="20" fill="#D9D9D9"/>
</mask>
<g mask="url(#mask0_1_907)">
<path d="M12.917 9.74999C13.2777 9.74999 13.5797 9.62499 13.823 9.37499C14.0663 9.12499 14.188 8.81933 14.188 8.45799C14.188 8.09733 14.0663 7.79199 13.823 7.54199C13.5797 7.29199 13.2777 7.16699 12.917 7.16699C12.5557 7.16699 12.2467 7.29199 11.99 7.54199C11.7327 7.79199 11.604 8.09733 11.604 8.45799C11.604 8.81933 11.7327 9.12499 11.99 9.37499C12.2467 9.62499 12.5557 9.74999 12.917 9.74999ZM7.12501 9.72899C7.48634 9.72899 7.78834 9.60399 8.03101 9.35399C8.27434 9.10399 8.39601 8.79866 8.39601 8.43799C8.39601 8.07666 8.27434 7.77099 8.03101 7.52099C7.78834 7.27099 7.48634 7.14599 7.12501 7.14599C6.76367 7.14599 6.45467 7.27099 6.19801 7.52099C5.94067 7.77099 5.81201 8.07666 5.81201 8.43799C5.81201 8.79866 5.94067 9.10399 6.19801 9.35399C6.45467 9.60399 6.76367 9.72899 7.12501 9.72899ZM10 15.083C10.778 15.083 11.4933 14.9093 12.146 14.562C12.7987 14.2153 13.3193 13.7573 13.708 13.188C13.8747 12.9373 13.899 12.701 13.781 12.479C13.663 12.257 13.472 12.146 13.208 12.146C13.1107 12.146 13.0067 12.1773 12.896 12.24C12.7847 12.302 12.6943 12.3747 12.625 12.458C12.3197 12.8747 11.9377 13.2013 11.479 13.438C11.021 13.674 10.528 13.792 10 13.792C9.47201 13.792 8.98234 13.6703 8.53101 13.427C8.07967 13.1837 7.69434 12.854 7.37501 12.438C7.30567 12.354 7.21901 12.2843 7.11501 12.229C7.01034 12.1737 6.90267 12.146 6.79201 12.146C6.54201 12.146 6.35434 12.2537 6.22901 12.469C6.10434 12.6843 6.12534 12.917 6.29201 13.167C6.68067 13.7503 7.20134 14.2153 7.85401 14.562C8.50667 14.9093 9.22201 15.083 10 15.083ZM10 18.833C8.84734 18.833 7.76401 18.6143 6.75001 18.177C5.73601 17.7397 4.85401 17.146 4.10401 16.396C3.35401 15.646 2.76034 14.764 2.32301 13.75C1.88567 12.736 1.66701 11.6527 1.66701 10.5C1.66701 9.34733 1.88567 8.26399 2.32301 7.24999C2.76034 6.23599 3.35401 5.35399 4.10401 4.60399C4.85401 3.85399 5.73601 3.26033 6.75001 2.82299C7.76401 2.38566 8.84734 2.16699 10 2.16699C11.1527 2.16699 12.236 2.38566 13.25 2.82299C14.264 3.26033 15.146 3.85399 15.896 4.60399C16.646 5.35399 17.2397 6.23599 17.677 7.24999C18.1143 8.26399 18.333 9.34733 18.333 10.5C18.333 11.6527 18.1143 12.736 17.677 13.75C17.2397 14.764 16.646 15.646 15.896 16.396C15.146 17.146 14.264 17.7397 13.25 18.177C12.236 18.6143 11.1527 18.833 10 18.833ZM10 17.083C11.8193 17.083 13.3713 16.4407 14.656 15.156C15.9407 13.8713 16.583 12.3193 16.583 10.5C16.583 8.68066 15.9407 7.12866 14.656 5.84399C13.3713 4.55933 11.8193 3.91699 10 3.91699C8.18067 3.91699 6.62867 4.55933 5.34401 5.84399C4.05934 7.12866 3.41701 8.68066 3.41701 10.5C3.41701 12.3193 4.05934 13.8713 5.34401 15.156C6.62867 16.4407 8.18067 17.083 10 17.083Z" fill="#1C1B1F"/>
</g>
</svg>
