<svg width="24" height="24" viewBox="0 0 24 24" fill="none" xmlns="http://www.w3.org/2000/svg">
<mask id="mask0_15_205" style="mask-type:alpha" maskUnits="userSpaceOnUse" x="0" y="0" width="24" height="24">
<rect width="24" height="24" fill="#D9D9D9"/>
</mask>
<g mask="url(#mask0_15_205)">
<path d="M15.35 20.3C15.0167 20.4333 14.7083 20.3917 14.425 20.175C14.1417 19.9583 14 19.6583 14 19.275C14 19.0917 14.0542 18.9292 14.1625 18.7875C14.2708 18.6458 14.4083 18.5417 14.575 18.475C15.9083 17.9417 16.9792 17.0917 17.7875 15.925C18.5958 14.7583 19 13.4417 19 11.975C19 10.5083 18.5958 9.19168 17.7875 8.02501C16.9792 6.85835 15.9083 6.00835 14.575 5.47501C14.3917 5.40835 14.25 5.30001 14.15 5.15001C14.05 5.00001 14 4.83335 14 4.65001C14 4.28335 14.1417 3.99168 14.425 3.77501C14.7083 3.55835 15.0167 3.51668 15.35 3.65001C17.05 4.33335 18.4167 5.42501 19.45 6.92501C20.4833 8.42501 21 10.1083 21 11.975C21 13.8417 20.4833 15.525 19.45 17.025C18.4167 18.525 17.05 19.6167 15.35 20.3ZM4 15C3.71667 15 3.47917 14.9042 3.2875 14.7125C3.09583 14.5208 3 14.2833 3 14V10C3 9.71668 3.09583 9.47918 3.2875 9.28751C3.47917 9.09585 3.71667 9.00001 4 9.00001H7L10.3 5.70001C10.6167 5.38335 10.9792 5.31251 11.3875 5.48751C11.7958 5.66251 12 5.97501 12 6.42501V17.575C12 18.025 11.7958 18.3375 11.3875 18.5125C10.9792 18.6875 10.6167 18.6167 10.3 18.3L7 15H4ZM14 16V7.95001C14.75 8.30001 15.3542 8.84168 15.8125 9.57501C16.2708 10.3083 16.5 11.1167 16.5 12C16.5 12.8833 16.2708 13.6833 15.8125 14.4C15.3542 15.1167 14.75 15.65 14 16Z" fill="white"/>
</g>
</svg>
