<svg width="25" height="24" viewBox="0 0 25 24" fill="none" xmlns="http://www.w3.org/2000/svg">
<mask id="mask0_5_783" style="mask-type:alpha" maskUnits="userSpaceOnUse" x="0" y="0" width="25" height="24">
<rect x="0.666504" width="24" height="24" fill="#D9D9D9"/>
</mask>
<g mask="url(#mask0_5_783)">
<path d="M4.6665 22C4.1165 22 3.64584 21.8043 3.2545 21.413C2.8625 21.021 2.6665 20.55 2.6665 20V10C2.6665 9.45 2.8625 8.979 3.2545 8.587C3.64584 8.19567 4.1165 8 4.6665 8H20.6665C21.2165 8 21.6875 8.19567 22.0795 8.587C22.4708 8.979 22.6665 9.45 22.6665 10V20C22.6665 20.55 22.4708 21.021 22.0795 21.413C21.6875 21.8043 21.2165 22 20.6665 22H4.6665ZM4.6665 20H20.6665V10H4.6665V20ZM10.6665 19L16.6665 15L10.6665 11V19ZM4.6665 7V5H20.6665V7H4.6665ZM7.6665 4V2H17.6665V4H7.6665Z" fill="#666666"/>
</g>
</svg>
