<svg width="18" height="19" viewBox="0 0 18 19" fill="none" xmlns="http://www.w3.org/2000/svg">
<mask id="mask0_1_931" style="mask-type:alpha" maskUnits="userSpaceOnUse" x="0" y="0" width="18" height="19">
<rect y="0.5" width="18" height="18" fill="#D9D9D9"/>
</mask>
<g mask="url(#mask0_1_931)">
<path d="M13.5 15.8001H4.94999V6.80015L10.35 1.40015L10.9503 1.81235C11.1627 1.96235 11.325 2.15315 11.4372 2.38475C11.55 2.61575 11.5812 2.85635 11.5308 3.10655L11.5128 3.20015L10.8 6.80015H15.75C16.125 6.80015 16.4436 6.93155 16.7058 7.19435C16.9686 7.45655 17.1 7.77515 17.1 8.15015V9.21935C17.1 9.31895 17.0907 9.40955 17.0721 9.49115C17.0535 9.57215 17.0253 9.65645 16.9875 9.74405L14.7564 14.9748C14.6436 15.225 14.4747 15.4251 14.2497 15.5751C14.0247 15.7251 13.7748 15.8001 13.5 15.8001ZM6.29999 14.4501H13.5L15.75 9.21935V8.15015H9.15029L10.0692 3.59435L6.29999 7.36265V14.4501ZM4.94999 6.80015V8.15015H2.24999V14.4501H4.94999V15.8001H0.899986V6.80015H4.94999Z" fill="#434343"/>
</g>
</svg>
